<?xml version="1.0"?>
<svg width="512" height="512" xmlns="http://www.w3.org/2000/svg" xmlns:svg="http://www.w3.org/2000/svg">
 <g>
  <title>Layer 1</title>
  <g stroke="#ffffff" text-anchor="start" font-size="18" font-weight="normal" font-family="Arial" stroke-dashoffset="0" stroke-miterlimit="10" fill="#1abc9c" id="drawing-layer">
   <path stroke="null" id="Shape 6" d="m446.200111,472.577248c-1.491941,0 -2.701407,-1.20945 -2.701407,-2.701391l0,-48.625122c0,-1.491941 1.209466,-2.701391 2.701407,-2.701391l48.625107,0c1.491941,0 2.701407,1.20945 2.701407,2.701391l0,48.625122c0,1.491941 -1.209466,2.701391 -2.701407,2.701391l-48.625107,0z"/>
   <path stroke="null" id="Shape 6-copy" d="m446.200111,286.647363c-1.491941,0 -2.701407,-1.20945 -2.701407,-2.701391l0,-48.625122c0,-1.491941 1.209466,-2.701391 2.701407,-2.701391l48.625107,0c1.491941,0 2.701407,1.20945 2.701407,2.701391l0,48.625122c0,1.491941 -1.209466,2.701391 -2.701407,2.701391l-48.625107,0z"/>
   <path stroke="null" id="Shape 6-copy" d="m446.200111,348.624002c-1.491941,0 -2.701407,-1.209466 -2.701407,-2.701407l0,-48.625122c0,-1.491941 1.209466,-2.701391 2.701407,-2.701391l48.625107,0c1.491941,0 2.701407,1.20945 2.701407,2.701391l0,48.625122c0,1.491941 -1.209466,2.701407 -2.701407,2.701407l-48.625107,0z"/>
   <path stroke="null" id="Shape 6-copy" d="m446.200111,410.600625c-1.491941,0 -2.701407,-1.20945 -2.701407,-2.701391l0,-48.625122c0,-1.491941 1.209466,-2.701407 2.701407,-2.701407l48.625107,0c1.491941,0 2.701407,1.209466 2.701407,2.701407l0,48.625122c0,1.491941 -1.209466,2.701391 -2.701407,2.701391l-48.625107,0z"/>
   <path stroke="null" id="Shape 6-copy" d="m16.174777,469.494629c-1.491941,0 -2.701407,-1.20945 -2.701407,-2.701391l0,-48.625122c0,-1.491941 1.209466,-2.701391 2.701407,-2.701391l48.625107,0c1.491941,0 2.701407,1.20945 2.701407,2.701391l0,48.625122c0,1.491941 -1.209466,2.701391 -2.701407,2.701391l-48.625107,0z"/>
   <path stroke="null" id="Shape 6-copy-copy" d="m16.174777,283.240499c-1.491941,0 -2.701407,-1.20945 -2.701407,-2.701391l0,-48.625122c0,-1.491941 1.209466,-2.701391 2.701407,-2.701391l48.625107,0c1.491941,0 2.701407,1.20945 2.701407,2.701391l0,48.625122c0,1.491941 -1.209466,2.701391 -2.701407,2.701391l-48.625107,0z"/>
   <path stroke="null" id="Shape 6-copy-copy" d="m16.174777,345.325214c-1.491941,0 -2.701407,-1.209466 -2.701407,-2.701407l0,-48.625122c0,-1.491941 1.209466,-2.701391 2.701407,-2.701391l48.625107,0c1.491941,0 2.701407,1.20945 2.701407,2.701391l0,48.625122c0,1.491941 -1.209466,2.701407 -2.701407,2.701407l-48.625107,0z"/>
   <path stroke="null" id="Shape 6-copy-copy" d="m16.174777,407.409929c-1.491941,0 -2.701407,-1.20945 -2.701407,-2.701391l0,-48.625122c0,-1.491941 1.209466,-2.701407 2.701407,-2.701407l48.625107,0c1.491941,0 2.701407,1.209466 2.701407,2.701407l0,48.625122c0,1.491941 -1.209466,2.701391 -2.701407,2.701391l-48.625107,0z"/>
   <path stroke="null" id="Shape 6-copy" d="m302.858333,471.035938c-1.491941,0 -2.701407,-1.20945 -2.701407,-2.701391l0,-48.625122c0,-1.491941 1.209466,-2.701391 2.701407,-2.701391l48.625107,0c1.491941,0 2.701407,1.20945 2.701407,2.701391l0,48.625122c0,1.491941 -1.209466,2.701391 -2.701407,2.701391l-48.625107,0z"/>
   <path stroke="null" id="Shape 6-copy-copy" d="m446.200111,224.67074c-1.491941,0 -2.701407,-1.20945 -2.701407,-2.701391l0,-48.625122c0,-1.491941 1.209466,-2.701391 2.701407,-2.701391l48.625107,0c1.491941,0 2.701407,1.20945 2.701407,2.701391l0,48.625122c0,1.491941 -1.209466,2.701391 -2.701407,2.701391l-48.625107,0z"/>
   <path stroke="null" id="Shape 6-copy-copy" d="m302.858333,346.59587c-1.491941,0 -2.701407,-1.209466 -2.701407,-2.701407l0,-48.625122c0,-1.491941 1.209466,-2.701391 2.701407,-2.701391l48.625107,0c1.491941,0 2.701407,1.20945 2.701407,2.701391l0,48.625122c0,1.491941 -1.209466,2.701407 -2.701407,2.701407l-48.625107,0z"/>
   <path stroke="null" id="Shape 6-copy-copy" d="m302.858333,408.815912c-1.491941,0 -2.701407,-1.20945 -2.701407,-2.701391l0,-48.625122c0,-1.491941 1.209466,-2.701407 2.701407,-2.701407l48.625107,0c1.491941,0 2.701407,1.209466 2.701407,2.701407l0,48.625122c0,1.491941 -1.209466,2.701391 -2.701407,2.701391l-48.625107,0z"/>
   <path stroke="null" id="Shape 6-copy-copy-copy" d="m302.858333,284.375828c-1.491941,0 -2.701407,-1.20945 -2.701407,-2.701391l0,-48.625122c0,-1.491941 1.209466,-2.701391 2.701407,-2.701391l48.625107,0c1.491941,0 2.701407,1.20945 2.701407,2.701391l0,48.625122c0,1.491941 -1.209466,2.701391 -2.701407,2.701391l-48.625107,0z"/>
   <path stroke="null" id="Shape 6-copy-copy-copy" d="m302.858333,222.155786c-1.491941,0 -2.701407,-1.20945 -2.701407,-2.701391l0,-48.625122c0,-1.491941 1.209466,-2.701391 2.701407,-2.701391l48.625107,0c1.491941,0 2.701407,1.20945 2.701407,2.701391l0,48.625122c0,1.491941 -1.209466,2.701391 -2.701407,2.701391l-48.625107,0z"/>
   <path stroke="null" id="Shape 6-copy-copy-copy" d="m302.858333,159.935744c-1.491941,0 -2.701407,-1.20945 -2.701407,-2.701391l0,-48.625122c0,-1.491941 1.209466,-2.701391 2.701407,-2.701391l48.625107,0c1.491941,0 2.701407,1.20945 2.701407,2.701391l0,48.625122c0,1.491941 -1.209466,2.701391 -2.701407,2.701391l-48.625107,0z"/>
   <path stroke="null" id="Shape 6-copy-copy-copy" d="m159.516555,468.197632c-1.491941,0 -2.701407,-1.20945 -2.701407,-2.701391l0,-48.625122c0,-1.491941 1.209466,-2.701391 2.701407,-2.701391l48.625107,0c1.491941,0 2.701407,1.20945 2.701407,2.701391l0,48.625122c0,1.491941 -1.209466,2.701391 -2.701407,2.701391l-48.625107,0z"/>
   <path stroke="null" id="Shape 6-copy-copy-copy" d="m159.516555,403.462636c-1.491941,0 -2.701407,-1.20945 -2.701407,-2.701391l0,-48.625122c0,-1.491941 1.209466,-2.701391 2.701407,-2.701391l48.625107,0c1.491941,0 2.701407,1.20945 2.701407,2.701391l0,48.625122c0,1.491941 -1.209466,2.701391 -2.701407,2.701391l-48.625107,0z"/>
   <path stroke="null" id="Shape 6-copy-copy-copy" d="m159.516555,338.727639c-1.491941,0 -2.701407,-1.20945 -2.701407,-2.701391l0,-48.625122c0,-1.491941 1.209466,-2.701391 2.701407,-2.701391l48.625107,0c1.491941,0 2.701407,1.20945 2.701407,2.701391l0,48.625122c0,1.491941 -1.209466,2.701391 -2.701407,2.701391l-48.625107,0z"/>
  </g>
  <g text-anchor="start" font-size="12" font-weight="normal" font-family="sans-serif" stroke-dashoffset="0" stroke-miterlimit="10" fill="none" id="guide-layer"/>
 </g>
</svg>