{
	"accessors" : 
	[
		{
			"bufferView" : 2,
			"byteOffset" : 0,
			"componentType" : 5126,
			"count" : 19992,
			"max" : 
			[
				1,
				0.835527777671814,
				0.8277258276939392,
				1
			],
			"min" : 
			[
				0,
				0.05284162983298302,
				0.0328759141266346,
				1
			],
			"name" : "accessor_color_m0-PolyPaper11_-149218",
			"type" : "VEC4"
		},
		{
			"bufferView" : 2,
			"byteOffset" : 319872,
			"componentType" : 5126,
			"count" : 15044,
			"max" : 
			[
				1,
				1,
				1,
				1
			],
			"min" : 
			[
				5.692175545846112e-05,
				0.01606770046055317,
				0.0328759141266346,
				1
			],
			"name" : "accessor_color_m1-PolyPaper5_-149224",
			"type" : "VEC4"
		},
		{
			"bufferView" : 0,
			"byteOffset" : 0,
			"componentType" : 5123,
			"count" : 28476,
			"max" : 
			[
				19991
			],
			"min" : 
			[
				0
			],
			"name" : "accessor_indices_0_m0-PolyPaper11_-149218",
			"type" : "SCALAR"
		},
		{
			"bufferView" : 0,
			"byteOffset" : 56952,
			"componentType" : 5123,
			"count" : 21606,
			"max" : 
			[
				15043
			],
			"min" : 
			[
				0
			],
			"name" : "accessor_indices_0_m1-PolyPaper5_-149224",
			"type" : "SCALAR"
		},
		{
			"bufferView" : 1,
			"byteOffset" : 239904,
			"componentType" : 5126,
			"count" : 19992,
			"max" : 
			[
				0.999947,
				0.9996637,
				0.9995425
			],
			"min" : 
			[
				-0.9999471,
				-0.9996644,
				-0.9995425
			],
			"name" : "accessor_normal_m0-PolyPaper11_-149218",
			"type" : "VEC3"
		},
		{
			"bufferView" : 1,
			"byteOffset" : 660336,
			"componentType" : 5126,
			"count" : 15044,
			"max" : 
			[
				0.996074,
				0.9992726,
				0.9989716
			],
			"min" : 
			[
				-0.9960731,
				-0.9999598,
				-0.9979732
			],
			"name" : "accessor_normal_m1-PolyPaper5_-149224",
			"type" : "VEC3"
		},
		{
			"bufferView" : 1,
			"byteOffset" : 0,
			"componentType" : 5126,
			"count" : 19992,
			"max" : 
			[
				-1.21619,
				1.884622,
				0.6202291
			],
			"min" : 
			[
				-1.626086,
				1.152758,
				0.218026
			],
			"name" : "accessor_position_m0-PolyPaper11_-149218",
			"type" : "VEC3"
		},
		{
			"bufferView" : 1,
			"byteOffset" : 479808,
			"componentType" : 5126,
			"count" : 15044,
			"max" : 
			[
				-1.22617,
				2.028161,
				0.6052878
			],
			"min" : 
			[
				-1.585717,
				1.153266,
				0.2063012
			],
			"name" : "accessor_position_m1-PolyPaper5_-149224",
			"type" : "VEC3"
		}
	],
	"asset" : 
	{
		"copyright" : "Unknown",
		"generator" : "glTF 1-to-2 Upgrader for Google Blocks",
		"version" : "2.0"
	},
	"bufferViews" : 
	[
		{
			"buffer" : 0,
			"byteLength" : 100164,
			"byteOffset" : 0,
			"name" : "ushortBufferView",
			"target" : 34963
		},
		{
			"buffer" : 0,
			"byteLength" : 840864,
			"byteOffset" : 100164,
			"byteStride" : 12,
			"name" : "vec3BufferView",
			"target" : 34962
		},
		{
			"buffer" : 0,
			"byteLength" : 560576,
			"byteOffset" : 941028,
			"byteStride" : 16,
			"name" : "vec4BufferView",
			"target" : 34962
		}
	],
	"buffers" : 
	[
		{
			"byteLength" : 1501604,
			"name" : "model",
			"uri" : "model.bin"
		}
	],
	"materials" : 
	[
		{
			"alphaMode" : "OPAQUE",
			"doubleSided" : false,
			"name" : "BlocksPaper",
			"pbrMetallicRoughness" : 
			{
				"baseColorFactor" : 
				[
					1,
					1,
					1,
					1
				],
				"metallicFactor" : 0,
				"roughnessFactor" : 0.6
			}
		},
		{
			"alphaMode" : "BLEND",
			"doubleSided" : false,
			"name" : "BlocksGlass",
			"pbrMetallicRoughness" : 
			{
				"baseColorFactor" : 
				[
					0.2,
					0.2,
					1,
					0.3
				],
				"metallicFactor" : 1,
				"roughnessFactor" : 0.4
			}
		},
		{
			"alphaMode" : "OPAQUE",
			"doubleSided" : true,
			"name" : "BlocksGem",
			"pbrMetallicRoughness" : 
			{
				"baseColorFactor" : 
				[
					1,
					0.4,
					1,
					1
				],
				"metallicFactor" : 0,
				"roughnessFactor" : 0.1
			}
		}
	],
	"meshes" : 
	[
		{
			"name" : "mesh_m0-PolyPaper11_-149218",
			"primitives" : 
			[
				{
					"attributes" : 
					{
						"COLOR_0" : 0,
						"NORMAL" : 4,
						"POSITION" : 6
					},
					"indices" : 2,
					"material" : 0,
					"mode" : 4
				}
			]
		},
		{
			"name" : "mesh_m1-PolyPaper5_-149224",
			"primitives" : 
			[
				{
					"attributes" : 
					{
						"COLOR_0" : 1,
						"NORMAL" : 5,
						"POSITION" : 7
					},
					"indices" : 3,
					"material" : 0,
					"mode" : 4
				}
			]
		}
	],
	"nodes" : 
	[
		{
			"matrix" : 
			[
				1,
				0,
				0,
				0,
				0,
				1,
				0,
				0,
				0,
				0,
				1,
				0,
				0,
				0,
				0,
				1
			],
			"mesh" : 1,
			"name" : "node_MeshObject-336040960-PolyPaper5"
		},
		{
			"matrix" : 
			[
				1,
				0,
				0,
				0,
				0,
				1,
				0,
				0,
				0,
				0,
				1,
				0,
				0,
				0,
				0,
				1
			],
			"mesh" : 0,
			"name" : "node_MeshObject-908120064-PolyPaper11"
		}
	],
	"scene" : 0,
	"scenes" : 
	[
		{
			"extras" : {},
			"name" : "defaultScene",
			"nodes" : 
			[
				1,
				0
			]
		}
	]
}