<?xml version="1.0" encoding="utf-8"?>
<!-- Generator: Adobe Illustrator 13.0.0, SVG Export Plug-In . SVG Version: 6.00 Build 14948)  -->
<!DOCTYPE svg PUBLIC "-//W3C//DTD SVG 1.1//EN" "http://www.w3.org/Graphics/SVG/1.1/DTD/svg11.dtd">
<svg version="1.1"
	 id="svg3462" xmlns:dc="http://purl.org/dc/elements/1.1/" xmlns:cc="http://creativecommons.org/ns#" xmlns:svg="http://www.w3.org/2000/svg" xmlns:rdf="http://www.w3.org/1999/02/22-rdf-syntax-ns#"
	 xmlns="http://www.w3.org/2000/svg" xmlns:xlink="http://www.w3.org/1999/xlink" x="0px" y="0px" width="121.678px"
	 height="41.675px" viewBox="0 0 121.678 41.675" enable-background="new 0 0 121.678 41.675" xml:space="preserve">
<g id="layer1" transform="translate(-479.16085,-202.95343)">
	<path id="path206" fill="#004098" d="M585.211,227.956c21.245-10.889,18.586-21.296-3.034-23.443
		c-23.292-2.313-57.324,2.694-81.037,12.27l-3.287,1.41c-24.695,11.041-22.356,22.725-0.312,24.857
		c24.085,2.33,60.702-2.43,84.676-13.595L585.211,227.956"/>
	<path id="path210" fill="#FFFFFF" d="M580.501,217.343c-4.549,0-4.031,3.469-4.031,3.469v6.344
		c0.097,3.271,4.156,2.938,4.156,2.938c2.11,0,3.188-1.406,3.188-1.406c0.124-0.094,0.469-0.594,0.469-0.594
		c0.324-0.457,0.344-1.25,0.344-1.25v-3.719h-4.063v1.782h0.875v1.875c0,0.922-0.813,0.969-0.813,0.969
		c-0.962,0-0.906-0.906-0.906-0.906v-6.532c0-0.674,0.844-0.719,0.844-0.719c0.818,0,0.813,0.813,0.813,0.813v1h3.156
		c0.103-1.942-0.281-2.406-0.281-2.406C583.47,217.242,580.501,217.343,580.501,217.343z M499.97,217.374
		c-0.914,0.021-2.832,0.214-3.5,1.469c0,0-0.344,0.388-0.344,1.688v0.938c0,0-0.053,1.084,0.5,1.781c0,0,0.324,0.464,1.094,0.969
		c0,0,1.562,0.831,2.5,1.313c0,0,0.938,0.546,0.813,1.406c0,0-0.086,0.879-1,0.844c0,0-0.813-0.041-0.813-0.906v-1h-3.375v1.469
		c0,0-0.089,2.813,4.219,2.813c0,0,4.119,0.108,4.313-2.875v-1.219c0,0,0.132-1.82-1.469-2.782c0,0-0.845-0.545-1.375-0.75
		c0,0-1.644-0.764-1.969-1.125c0,0-0.622-0.583-0.25-1.281c0,0,0.17-0.469,0.844-0.469c0,0,0.875,0.059,0.875,0.781v1h3.125v-1.5
		c0,0,0.26-2.454-3.688-2.563C500.47,217.374,500.274,217.367,499.97,217.374z M541.188,217.374c-0.914,0.021-2.831,0.214-3.5,1.469
		c0,0-0.344,0.388-0.344,1.688v0.938c0,0-0.054,1.084,0.5,1.781c0,0,0.322,0.464,1.094,0.969c0,0,1.563,0.831,2.5,1.313
		c0,0,0.938,0.546,0.813,1.406c0,0-0.055,0.879-0.969,0.844c0,0-0.844-0.041-0.844-0.906v-1h-3.344v1.469
		c0,0-0.118,2.813,4.188,2.813c0,0,4.12,0.108,4.313-2.875v-1.219c0,0,0.163-1.82-1.438-2.782c0,0-0.877-0.545-1.406-0.75
		c0,0-1.613-0.764-1.938-1.125c0,0-0.653-0.583-0.281-1.281c0,0,0.17-0.469,0.844-0.469c0,0,0.875,0.059,0.875,0.781v1h3.125v-1.5
		c0,0,0.259-2.454-3.688-2.563C541.688,217.374,541.493,217.367,541.188,217.374z M549.313,217.749v8.969
		c0,0-0.351,3.375,4.438,3.375c0,0,4.156,0.066,4.156-3.219v-9.125h-3.344v9c0,0,0.071,1-0.844,1c0,0-0.969,0.043-0.969-0.969
		l-0.031-9.032H549.313L549.313,217.749z M509.532,217.781l-2.094,11.969h3.375l1.219-9.282h0.281l1.219,9.282h3.344l-2.063-11.969
		H509.532z M520.47,217.812l-0.25,11.938h3.125l0.031-9h0.25l1.625,9h3.281l1.625-9h0.219l0.063,9h3.156l-0.344-11.938h-5.219
		l-1.031,6.532h-0.25l-1-6.532H520.47L520.47,217.812z M562.188,217.812v11.938h3.094l-0.188-7.313h0.156l3.313,7.313h3.719v-11.938
		h-3.156l0.219,7.25h-0.125l-3.219-7.25H562.188z"/>
</g>
</svg>
