<?xml version="1.0" encoding="iso-8859-1"?>
<!-- Generator: Adobe Illustrator 18.1.1, SVG Export Plug-In . SVG Version: 6.00 Build 0)  -->
<svg version="1.1" id="Capa_1" xmlns="http://www.w3.org/2000/svg" xmlns:xlink="http://www.w3.org/1999/xlink" x="0px" y="0px"
	 viewBox="0 0 290.001 290.001" style="enable-background:new 0 0 290.001 290.001;" xml:space="preserve">
<path color-rendering="auto" image-rendering="auto" shape-rendering="auto" color-interpolation="sRGB" d="M90.001,11.147
	c-20.395,0-40.792,2.631-56.582,7.895c-2.865,0.914-3.807,3.334-3.418,5.543v24.201L4.924,48.714
	c-2.76,0.042-4.964,2.312-4.924,5.072v220c-0.041,3.111,2.739,5.503,5.809,5h278.375c3.073,0.509,5.858-1.886,5.816-5v-220
	c0.041-2.82-2.257-5.115-5.076-5.072l-24.924,0.072V24.585c0.389-2.208-0.553-4.628-3.418-5.543
	c-15.791-5.263-36.187-7.895-56.582-7.895c-19.726,0-39.44,2.469-55,7.393C129.441,13.616,109.727,11.147,90.001,11.147
	L90.001,11.147z M90.001,21.424c18.08,0,36.152,2.02,50,6.049v209.6c-14.673-3.948-32.335-5.926-50-5.926
	c-17.666,0-35.326,1.979-50,5.928V27.473C53.849,23.444,71.919,21.424,90.001,21.424z M200.001,21.424
	c18.081,0,36.152,2.02,50,6.049v209.6c-14.673-3.948-32.335-5.926-50-5.926c-17.666,0-35.326,1.979-50,5.928V27.473
	C163.849,23.444,181.919,21.424,200.001,21.424z M10.001,58.786h20v184.25c-0.58,3.727,3.019,6.73,6.582,5.492
	c28.419-9.473,78.417-9.473,106.836,0c1.204,0.417,2.521,0.358,3.684-0.164c28.504-9.304,78.067-9.253,106.316,0.164
	c4.328,1.506,7.191-2.45,6.582-5.793V58.786h20v210h-270V58.786z"/>
<g>
</g>
<g>
</g>
<g>
</g>
<g>
</g>
<g>
</g>
<g>
</g>
<g>
</g>
<g>
</g>
<g>
</g>
<g>
</g>
<g>
</g>
<g>
</g>
<g>
</g>
<g>
</g>
<g>
</g>
</svg>
